<svg width="197" height="40" viewBox="0 0 197 40" fill="none" xmlns="http://www.w3.org/2000/svg">
<path d="M48.4798 8.644C50.0931 8.644 51.5084 8.95933 52.7258 9.59C53.9578 10.2207 54.9038 11.1227 55.5638 12.296C56.2384 13.4547 56.5758 14.804 56.5758 16.344C56.5758 17.884 56.2384 19.2333 55.5638 20.392C54.9038 21.536 53.9578 22.4233 52.7258 23.054C51.5084 23.6847 50.0931 24 48.4798 24H43.1118V8.644H48.4798ZM48.3698 21.382C49.9831 21.382 51.2298 20.942 52.1098 20.062C52.9898 19.182 53.4298 17.9427 53.4298 16.344C53.4298 14.7453 52.9898 13.4987 52.1098 12.604C51.2298 11.6947 49.9831 11.24 48.3698 11.24H46.1918V21.382H48.3698ZM70.2113 17.642C70.2113 18.082 70.1819 18.478 70.1233 18.83H61.2133C61.2866 19.71 61.5946 20.3993 62.1373 20.898C62.6799 21.3967 63.3473 21.646 64.1393 21.646C65.2833 21.646 66.0973 21.1547 66.5813 20.172H69.9033C69.5513 21.3453 68.8766 22.3133 67.8793 23.076C66.8819 23.824 65.6573 24.198 64.2053 24.198C63.0319 24.198 61.9759 23.9413 61.0373 23.428C60.1133 22.9 59.3873 22.1593 58.8593 21.206C58.3459 20.2527 58.0893 19.1527 58.0893 17.906C58.0893 16.6447 58.3459 15.5373 58.8593 14.584C59.3726 13.6307 60.0913 12.8973 61.0153 12.384C61.9393 11.8707 63.0026 11.614 64.2053 11.614C65.3639 11.614 66.3979 11.8633 67.3073 12.362C68.2313 12.8607 68.9426 13.572 69.4413 14.496C69.9546 15.4053 70.2113 16.454 70.2113 17.642ZM67.0213 16.762C67.0066 15.97 66.7206 15.3393 66.1633 14.87C65.6059 14.386 64.9239 14.144 64.1173 14.144C63.3546 14.144 62.7093 14.3787 62.1813 14.848C61.6679 15.3027 61.3526 15.9407 61.2353 16.762H67.0213ZM83.7894 17.642C83.7894 18.082 83.7601 18.478 83.7014 18.83H74.7914C74.8647 19.71 75.1727 20.3993 75.7154 20.898C76.2581 21.3967 76.9254 21.646 77.7174 21.646C78.8614 21.646 79.6754 21.1547 80.1594 20.172H83.4814C83.1294 21.3453 82.4547 22.3133 81.4574 23.076C80.4601 23.824 79.2354 24.198 77.7834 24.198C76.6101 24.198 75.5541 23.9413 74.6154 23.428C73.6914 22.9 72.9654 22.1593 72.4374 21.206C71.9241 20.2527 71.6674 19.1527 71.6674 17.906C71.6674 16.6447 71.9241 15.5373 72.4374 14.584C72.9507 13.6307 73.6694 12.8973 74.5934 12.384C75.5174 11.8707 76.5807 11.614 77.7834 11.614C78.9421 11.614 79.9761 11.8633 80.8854 12.362C81.8094 12.8607 82.5207 13.572 83.0194 14.496C83.5327 15.4053 83.7894 16.454 83.7894 17.642ZM80.5994 16.762C80.5847 15.97 80.2987 15.3393 79.7414 14.87C79.1841 14.386 78.5021 14.144 77.6954 14.144C76.9327 14.144 76.2874 14.3787 75.7594 14.848C75.2461 15.3027 74.9307 15.9407 74.8134 16.762H80.5994ZM89.1175 13.572C89.5135 13.0147 90.0562 12.5527 90.7455 12.186C91.4495 11.8047 92.2489 11.614 93.1435 11.614C94.1849 11.614 95.1235 11.8707 95.9595 12.384C96.8102 12.8973 97.4775 13.6307 97.9615 14.584C98.4602 15.5227 98.7095 16.6153 98.7095 17.862C98.7095 19.1087 98.4602 20.216 97.9615 21.184C97.4775 22.1373 96.8102 22.878 95.9595 23.406C95.1235 23.934 94.1849 24.198 93.1435 24.198C92.2489 24.198 91.4569 24.0147 90.7675 23.648C90.0929 23.2813 89.5429 22.8193 89.1175 22.262V29.808H86.0375V11.812H89.1175V13.572ZM95.5635 17.862C95.5635 17.1287 95.4095 16.498 95.1015 15.97C94.8082 15.4273 94.4122 15.0167 93.9135 14.738C93.4295 14.4593 92.9015 14.32 92.3295 14.32C91.7722 14.32 91.2442 14.4667 90.7455 14.76C90.2615 15.0387 89.8655 15.4493 89.5575 15.992C89.2642 16.5347 89.1175 17.1727 89.1175 17.906C89.1175 18.6393 89.2642 19.2773 89.5575 19.82C89.8655 20.3627 90.2615 20.7807 90.7455 21.074C91.2442 21.3527 91.7722 21.492 92.3295 21.492C92.9015 21.492 93.4295 21.3453 93.9135 21.052C94.4122 20.7587 94.8082 20.3407 95.1015 19.798C95.4095 19.2553 95.5635 18.61 95.5635 17.862ZM160.639 21.558H165.699V24H157.559V8.644H160.639V21.558ZM166.865 17.862C166.865 16.63 167.107 15.5373 167.591 14.584C168.089 13.6307 168.757 12.8973 169.593 12.384C170.443 11.8707 171.389 11.614 172.431 11.614C173.34 11.614 174.132 11.7973 174.807 12.164C175.496 12.5307 176.046 12.9927 176.457 13.55V11.812H179.559V24H176.457V22.218C176.061 22.79 175.511 23.2667 174.807 23.648C174.117 24.0147 173.318 24.198 172.409 24.198C171.382 24.198 170.443 23.934 169.593 23.406C168.757 22.878 168.089 22.1373 167.591 21.184C167.107 20.216 166.865 19.1087 166.865 17.862ZM176.457 17.906C176.457 17.158 176.31 16.52 176.017 15.992C175.723 15.4493 175.327 15.0387 174.829 14.76C174.33 14.4667 173.795 14.32 173.223 14.32C172.651 14.32 172.123 14.4593 171.639 14.738C171.155 15.0167 170.759 15.4273 170.451 15.97C170.157 16.498 170.011 17.1287 170.011 17.862C170.011 18.5953 170.157 19.2407 170.451 19.798C170.759 20.3407 171.155 20.7587 171.639 21.052C172.137 21.3453 172.665 21.492 173.223 21.492C173.795 21.492 174.33 21.3527 174.829 21.074C175.327 20.7807 175.723 20.37 176.017 19.842C176.31 19.2993 176.457 18.654 176.457 17.906ZM185.647 13.594C186.043 13.0073 186.585 12.5307 187.275 12.164C187.979 11.7973 188.778 11.614 189.673 11.614C190.714 11.614 191.653 11.8707 192.489 12.384C193.339 12.8973 194.007 13.6307 194.491 14.584C194.989 15.5227 195.239 16.6153 195.239 17.862C195.239 19.1087 194.989 20.216 194.491 21.184C194.007 22.1373 193.339 22.878 192.489 23.406C191.653 23.934 190.714 24.198 189.673 24.198C188.763 24.198 187.964 24.022 187.275 23.67C186.6 23.3033 186.057 22.834 185.647 22.262V24H182.567V7.72H185.647V13.594ZM192.093 17.862C192.093 17.1287 191.939 16.498 191.631 15.97C191.337 15.4273 190.941 15.0167 190.443 14.738C189.959 14.4593 189.431 14.32 188.859 14.32C188.301 14.32 187.773 14.4667 187.275 14.76C186.791 15.0387 186.395 15.4493 186.087 15.992C185.793 16.5347 185.647 17.1727 185.647 17.906C185.647 18.6393 185.793 19.2773 186.087 19.82C186.395 20.3627 186.791 20.7807 187.275 21.074C187.773 21.3527 188.301 21.492 188.859 21.492C189.431 21.492 189.959 21.3453 190.443 21.052C190.941 20.7587 191.337 20.3407 191.631 19.798C191.939 19.2553 192.093 18.61 192.093 17.862Z" fill="black"/>
<path d="M112.146 13.396C112.146 14.2173 111.948 14.9873 111.552 15.706C111.17 16.4247 110.562 17.004 109.726 17.444C108.904 17.884 107.863 18.104 106.602 18.104H104.028V24H100.948V8.644H106.602C107.79 8.644 108.802 8.84933 109.638 9.26C110.474 9.67067 111.097 10.2353 111.508 10.954C111.933 11.6727 112.146 12.4867 112.146 13.396ZM106.47 15.618C107.32 15.618 107.951 15.4273 108.362 15.046C108.772 14.65 108.978 14.1 108.978 13.396C108.978 11.9 108.142 11.152 106.47 11.152H104.028V15.618H106.47ZM119.744 24.198C118.571 24.198 117.515 23.9413 116.576 23.428C115.638 22.9 114.897 22.1593 114.354 21.206C113.826 20.2527 113.562 19.1527 113.562 17.906C113.562 16.6593 113.834 15.5593 114.376 14.606C114.934 13.6527 115.689 12.9193 116.642 12.406C117.596 11.878 118.659 11.614 119.832 11.614C121.006 11.614 122.069 11.878 123.022 12.406C123.976 12.9193 124.724 13.6527 125.266 14.606C125.824 15.5593 126.102 16.6593 126.102 17.906C126.102 19.1527 125.816 20.2527 125.244 21.206C124.687 22.1593 123.924 22.9 122.956 23.428C122.003 23.9413 120.932 24.198 119.744 24.198ZM119.744 21.514C120.302 21.514 120.822 21.382 121.306 21.118C121.805 20.8393 122.201 20.4287 122.494 19.886C122.788 19.3433 122.934 18.6833 122.934 17.906C122.934 16.7473 122.626 15.86 122.01 15.244C121.409 14.6133 120.668 14.298 119.788 14.298C118.908 14.298 118.168 14.6133 117.566 15.244C116.98 15.86 116.686 16.7473 116.686 17.906C116.686 19.0647 116.972 19.9593 117.544 20.59C118.131 21.206 118.864 21.514 119.744 21.514ZM129.924 10.36C129.381 10.36 128.926 10.1913 128.56 9.854C128.208 9.502 128.032 9.06933 128.032 8.556C128.032 8.04267 128.208 7.61733 128.56 7.28C128.926 6.928 129.381 6.752 129.924 6.752C130.466 6.752 130.914 6.928 131.266 7.28C131.632 7.61733 131.816 8.04267 131.816 8.556C131.816 9.06933 131.632 9.502 131.266 9.854C130.914 10.1913 130.466 10.36 129.924 10.36ZM131.442 11.812V24H128.362V11.812H131.442ZM141.239 11.636C142.691 11.636 143.864 12.098 144.759 13.022C145.653 13.9313 146.101 15.2073 146.101 16.85V24H143.021V17.268C143.021 16.3 142.779 15.5593 142.295 15.046C141.811 14.518 141.151 14.254 140.315 14.254C139.464 14.254 138.789 14.518 138.291 15.046C137.807 15.5593 137.565 16.3 137.565 17.268V24H134.485V11.812H137.565V13.33C137.975 12.802 138.496 12.3913 139.127 12.098C139.772 11.79 140.476 11.636 141.239 11.636ZM152.616 14.342V20.238C152.616 20.6487 152.711 20.9493 152.902 21.14C153.107 21.316 153.444 21.404 153.914 21.404H155.344V24H153.408C150.812 24 149.514 22.7387 149.514 20.216V14.342H148.062V11.812H149.514V8.798H152.616V11.812H155.344V14.342H152.616Z" fill="#EA3A60"/>
<g filter="url(#filter0_d_38_18)">
<path d="M20 0C16.8355 -3.77363e-08 13.7421 0.938383 11.1109 2.69649C8.47969 4.45459 6.42893 6.95345 5.21793 9.87706C4.00693 12.8007 3.69007 16.0177 4.30743 19.1214C4.9248 22.2251 6.44865 25.0761 8.68629 27.3137C10.9239 29.5513 13.7749 31.0752 16.8786 31.6926C19.9822 32.3099 23.1993 31.9931 26.1229 30.7821C29.0465 29.5711 31.5454 27.5203 33.3035 24.8891C35.0616 22.2579 36 19.1645 36 16L28 16C28 17.5823 27.5308 19.129 26.6518 20.4446C25.7727 21.7602 24.5233 22.7855 23.0615 23.391C21.5997 23.9965 19.9911 24.155 18.4393 23.8463C16.8874 23.5376 15.462 22.7757 14.3431 21.6569C13.2243 20.538 12.4624 19.1126 12.1537 17.5607C11.845 16.0089 12.0035 14.4003 12.609 12.9385C13.2145 11.4767 14.2398 10.2273 15.5554 9.34824C16.871 8.46919 18.4177 8 20 8V0Z" fill="white"/>
<path d="M20 0C17.8989 -2.5056e-08 15.8183 0.413852 13.8771 1.21793C11.9359 2.022 10.172 3.20055 8.68629 4.68629C7.20055 6.17203 6.022 7.93586 5.21793 9.87707C4.41385 11.8183 4 13.8989 4 16L12 16C12 14.9494 12.2069 13.9091 12.609 12.9385C13.011 11.9679 13.6003 11.086 14.3431 10.3431C15.086 9.60028 15.9679 9.011 16.9385 8.60896C17.9091 8.20693 18.9494 8 20 8L20 0Z" fill="#EA3A60"/>
<circle cx="20" cy="16" r="5" fill="#EA3A60"/>
<path d="M25 16C25 15.3434 24.8707 14.6932 24.6194 14.0866C24.3681 13.48 23.9998 12.9288 23.5355 12.4645C23.0712 12.0002 22.52 11.6319 21.9134 11.3806C21.3068 11.1293 20.6566 11 20 11C19.3434 11 18.6932 11.1293 18.0866 11.3806C17.48 11.6319 16.9288 12.0002 16.4645 12.4645C16.0002 12.9288 15.6319 13.48 15.3806 14.0866C15.1293 14.6932 15 15.3434 15 16L20 16H25Z" fill="white"/>
</g>
<defs>
<filter id="filter0_d_38_18" x="0" y="0" width="40" height="40" filterUnits="userSpaceOnUse" color-interpolation-filters="sRGB">
<feFlood flood-opacity="0" result="BackgroundImageFix"/>
<feColorMatrix in="SourceAlpha" type="matrix" values="0 0 0 0 0 0 0 0 0 0 0 0 0 0 0 0 0 0 127 0" result="hardAlpha"/>
<feOffset dy="4"/>
<feGaussianBlur stdDeviation="2"/>
<feComposite in2="hardAlpha" operator="out"/>
<feColorMatrix type="matrix" values="0 0 0 0 0 0 0 0 0 0 0 0 0 0 0 0 0 0 0.25 0"/>
<feBlend mode="normal" in2="BackgroundImageFix" result="effect1_dropShadow_38_18"/>
<feBlend mode="normal" in="SourceGraphic" in2="effect1_dropShadow_38_18" result="shape"/>
</filter>
</defs>
</svg>
