<svg width="40" height="40" viewBox="0 0 40 40" fill="none" xmlns="http://www.w3.org/2000/svg">
<g filter="url(#filter0_d_1_247)">
<path d="M20 0C16.8355 -3.77363e-08 13.7421 0.938383 11.1109 2.69649C8.47969 4.45459 6.42893 6.95345 5.21793 9.87706C4.00693 12.8007 3.69007 16.0177 4.30743 19.1214C4.9248 22.2251 6.44865 25.0761 8.68629 27.3137C10.9239 29.5513 13.7749 31.0752 16.8786 31.6926C19.9822 32.3099 23.1993 31.9931 26.1229 30.7821C29.0465 29.5711 31.5454 27.5203 33.3035 24.8891C35.0616 22.2579 36 19.1645 36 16L28 16C28 17.5823 27.5308 19.129 26.6518 20.4446C25.7727 21.7602 24.5233 22.7855 23.0615 23.391C21.5997 23.9965 19.9911 24.155 18.4393 23.8463C16.8874 23.5376 15.462 22.7757 14.3431 21.6569C13.2243 20.538 12.4624 19.1126 12.1537 17.5607C11.845 16.0089 12.0035 14.4003 12.609 12.9385C13.2145 11.4767 14.2398 10.2273 15.5554 9.34824C16.871 8.46919 18.4177 8 20 8L20 0Z" fill="white"/>
<path d="M20 0C17.8989 -2.5056e-08 15.8183 0.413852 13.8771 1.21793C11.9359 2.022 10.172 3.20055 8.68629 4.68629C7.20055 6.17203 6.022 7.93586 5.21793 9.87707C4.41385 11.8183 4 13.8989 4 16L12 16C12 14.9494 12.2069 13.9091 12.609 12.9385C13.011 11.9679 13.6003 11.086 14.3431 10.3431C15.086 9.60028 15.9679 9.011 16.9385 8.60896C17.9091 8.20693 18.9494 8 20 8L20 0Z" fill="#88E9ED"/>
<circle cx="20" cy="16" r="5" fill="#88E9ED"/>
<path d="M25 16C25 15.3434 24.8707 14.6932 24.6194 14.0866C24.3681 13.48 23.9998 12.9288 23.5355 12.4645C23.0712 12.0002 22.52 11.6319 21.9134 11.3806C21.3068 11.1293 20.6566 11 20 11C19.3434 11 18.6932 11.1293 18.0866 11.3806C17.48 11.6319 16.9288 12.0002 16.4645 12.4645C16.0002 12.9288 15.6319 13.48 15.3806 14.0866C15.1293 14.6932 15 15.3434 15 16L20 16H25Z" fill="white"/>
</g>
<defs>
<filter id="filter0_d_1_247" x="0" y="0" width="40" height="40" filterUnits="userSpaceOnUse" color-interpolation-filters="sRGB">
<feFlood flood-opacity="0" result="BackgroundImageFix"/>
<feColorMatrix in="SourceAlpha" type="matrix" values="0 0 0 0 0 0 0 0 0 0 0 0 0 0 0 0 0 0 127 0" result="hardAlpha"/>
<feOffset dy="4"/>
<feGaussianBlur stdDeviation="2"/>
<feComposite in2="hardAlpha" operator="out"/>
<feColorMatrix type="matrix" values="0 0 0 0 0 0 0 0 0 0 0 0 0 0 0 0 0 0 0.25 0"/>
<feBlend mode="normal" in2="BackgroundImageFix" result="effect1_dropShadow_1_247"/>
<feBlend mode="normal" in="SourceGraphic" in2="effect1_dropShadow_1_247" result="shape"/>
</filter>
</defs>
</svg>
